<mxfile host="app.diagrams.net" modified="2023-11-01T08:46:51.104Z" agent="Mozilla/5.0 (X11; Linux x86_64) AppleWebKit/537.36 (KHTML, like Gecko) Chrome/118.0.0.0 Safari/537.36" etag="1cnplh2wCOUGBXMXs9cV" version="22.0.8" type="device">
  <diagram name="Page-1" id="c7488fd3-1785-93aa-aadb-54a6760d102a">
    <mxGraphModel dx="1434" dy="838" grid="1" gridSize="10" guides="1" tooltips="1" connect="1" arrows="1" fold="1" page="1" pageScale="1" pageWidth="1100" pageHeight="850" background="none" math="0" shadow="0">
      <root>
        <mxCell id="0" />
        <mxCell id="1" parent="0" />
        <mxCell id="1pEYYVy0cJcLMHhIOJtp-2" value="" style="rounded=0;whiteSpace=wrap;html=1;" vertex="1" parent="1">
          <mxGeometry x="105" y="40" width="915" height="380" as="geometry" />
        </mxCell>
        <mxCell id="1pEYYVy0cJcLMHhIOJtp-18" style="edgeStyle=orthogonalEdgeStyle;rounded=0;orthogonalLoop=1;jettySize=auto;html=1;exitX=1;exitY=0.5;exitDx=0;exitDy=0;entryX=0;entryY=0.5;entryDx=0;entryDy=0;" edge="1" parent="1" source="1pEYYVy0cJcLMHhIOJtp-5" target="1pEYYVy0cJcLMHhIOJtp-14">
          <mxGeometry relative="1" as="geometry" />
        </mxCell>
        <mxCell id="1pEYYVy0cJcLMHhIOJtp-5" value="" style="rounded=0;whiteSpace=wrap;html=1;" vertex="1" parent="1">
          <mxGeometry x="144" y="150" width="180" height="220" as="geometry" />
        </mxCell>
        <mxCell id="1pEYYVy0cJcLMHhIOJtp-6" value="&lt;h1&gt;Python Code&lt;/h1&gt;" style="text;html=1;strokeColor=none;fillColor=none;spacing=5;spacingTop=-20;whiteSpace=wrap;overflow=hidden;rounded=0;align=center;" vertex="1" parent="1">
          <mxGeometry x="414" y="63" width="320" height="40" as="geometry" />
        </mxCell>
        <mxCell id="1pEYYVy0cJcLMHhIOJtp-7" value="YouTube API" style="text;html=1;strokeColor=none;fillColor=none;align=center;verticalAlign=middle;whiteSpace=wrap;rounded=0;fontSize=14;fontStyle=1" vertex="1" parent="1">
          <mxGeometry x="184" y="160" width="100" height="30" as="geometry" />
        </mxCell>
        <mxCell id="1pEYYVy0cJcLMHhIOJtp-9" value="Channel Info" style="rounded=0;whiteSpace=wrap;html=1;" vertex="1" parent="1">
          <mxGeometry x="177" y="210" width="110" height="30" as="geometry" />
        </mxCell>
        <mxCell id="1pEYYVy0cJcLMHhIOJtp-10" value="Video Info" style="rounded=0;whiteSpace=wrap;html=1;" vertex="1" parent="1">
          <mxGeometry x="177" y="260" width="110" height="30" as="geometry" />
        </mxCell>
        <mxCell id="1pEYYVy0cJcLMHhIOJtp-11" value="Comment Info" style="rounded=0;whiteSpace=wrap;html=1;" vertex="1" parent="1">
          <mxGeometry x="177" y="310" width="110" height="30" as="geometry" />
        </mxCell>
        <mxCell id="1pEYYVy0cJcLMHhIOJtp-19" style="edgeStyle=orthogonalEdgeStyle;rounded=0;orthogonalLoop=1;jettySize=auto;html=1;exitX=1;exitY=0.5;exitDx=0;exitDy=0;entryX=0;entryY=0.5;entryDx=0;entryDy=0;" edge="1" parent="1" source="1pEYYVy0cJcLMHhIOJtp-14" target="1pEYYVy0cJcLMHhIOJtp-16">
          <mxGeometry relative="1" as="geometry" />
        </mxCell>
        <mxCell id="1pEYYVy0cJcLMHhIOJtp-14" value="&lt;b&gt;&lt;font style=&quot;font-size: 14px;&quot;&gt;Data &lt;br&gt;Preprocessing&lt;/font&gt;&lt;/b&gt;" style="rounded=0;whiteSpace=wrap;html=1;" vertex="1" parent="1">
          <mxGeometry x="380" y="230" width="170" height="60" as="geometry" />
        </mxCell>
        <mxCell id="1pEYYVy0cJcLMHhIOJtp-26" style="edgeStyle=orthogonalEdgeStyle;rounded=0;orthogonalLoop=1;jettySize=auto;html=1;exitX=1;exitY=0.5;exitDx=0;exitDy=0;" edge="1" parent="1" source="1pEYYVy0cJcLMHhIOJtp-16" target="1pEYYVy0cJcLMHhIOJtp-24">
          <mxGeometry relative="1" as="geometry" />
        </mxCell>
        <mxCell id="1pEYYVy0cJcLMHhIOJtp-16" value="1. Sentiment Analysis&lt;br&gt;&lt;br&gt;2. Question Tagging&lt;br&gt;&lt;div style=&quot;text-align: left;&quot;&gt;&lt;/div&gt;" style="rounded=0;whiteSpace=wrap;html=1;" vertex="1" parent="1">
          <mxGeometry x="597" y="160" width="155" height="200" as="geometry" />
        </mxCell>
        <mxCell id="1pEYYVy0cJcLMHhIOJtp-17" value="NLP&lt;br&gt;(Text Processing)" style="text;html=1;strokeColor=none;fillColor=none;align=center;verticalAlign=middle;whiteSpace=wrap;rounded=0;fontSize=14;fontStyle=1" vertex="1" parent="1">
          <mxGeometry x="614" y="160" width="120" height="60" as="geometry" />
        </mxCell>
        <mxCell id="1pEYYVy0cJcLMHhIOJtp-24" value="channel_info&lt;br style=&quot;border-color: var(--border-color);&quot;&gt;video_details&lt;br style=&quot;border-color: var(--border-color);&quot;&gt;latest_video_details&lt;br style=&quot;border-color: var(--border-color);&quot;&gt;comment_details" style="shape=cylinder3;whiteSpace=wrap;html=1;boundedLbl=1;backgroundOutline=1;size=15;" vertex="1" parent="1">
          <mxGeometry x="810" y="165" width="150" height="190" as="geometry" />
        </mxCell>
        <mxCell id="1pEYYVy0cJcLMHhIOJtp-23" value="BQ tables" style="text;html=1;strokeColor=none;fillColor=none;align=center;verticalAlign=middle;whiteSpace=wrap;rounded=0;fontSize=14;fontStyle=1" vertex="1" parent="1">
          <mxGeometry x="840" y="200" width="100" height="30" as="geometry" />
        </mxCell>
      </root>
    </mxGraphModel>
  </diagram>
</mxfile>
